<svg width="61" height="36" viewBox="0 0 61 36" fill="none" xmlns="http://www.w3.org/2000/svg">
<g clip-path="url(#clip0_14056_324219)">
<path d="M10.5122 29.04C13.9352 29.04 17.0729 29.6961 20.011 30.2951C20.3533 30.3522 20.667 30.4378 21.0093 30.4948C25.2595 31.4361 29.4242 32.7197 32.5049 33.3758C34.2449 33.7466 41.0053 35.2299 45.5122 35.6863C45.5407 35.6863 45.5692 35.6863 45.5978 35.6863C47.1666 35.829 49.2204 35.9145 51.3027 35.9431C36.9833 35.886 12.2807 35.829 8.14463 35.829C0.442917 35.829 0.357338 33.1191 0.357338 33.1191C0.357338 33.1191 0.642586 30.7515 4.49344 29.7532C6.57576 29.2397 8.60102 29.04 10.5122 29.04Z" fill="url(#paint0_linear_14056_324219)"/>
<path fill-rule="evenodd" clip-rule="evenodd" d="M61.6001 7.96015C61.6001 7.96015 60.0883 7.96015 59.204 7.96015C56.2945 7.96015 49.2774 8.0172 45.5121 7.64638C41.0337 7.18998 34.2733 5.73521 32.5047 5.33587C29.1673 4.62274 24.6034 3.16798 20.0109 2.22666C15.4184 1.28534 10.2554 0.201392 4.49333 1.71321C0.671001 2.71158 0.357227 5.07914 0.357227 5.07914V33.1191C0.357227 33.1191 0.642479 30.7515 4.49333 29.7531C10.2554 28.2413 15.4184 29.3253 20.0109 30.2666C24.6319 31.2079 29.1673 32.6627 32.5047 33.3758C34.2448 33.7466 41.0051 35.2299 45.5121 35.6863C49.2774 36.0571 56.2945 36.0001 59.204 36.0001C60.0883 36.0001 61.6001 36.0001 61.6001 36.0001V7.96015" fill="#DF002B"/>
<path fill-rule="evenodd" clip-rule="evenodd" d="M0.385788 11.8965C0.385788 11.8965 0.671036 9.52896 4.52189 8.53059C10.2839 7.01877 15.4469 8.10272 20.0394 9.04404C24.6604 9.98536 29.1959 11.4401 32.5333 12.1532C34.2733 12.5241 41.0337 14.0074 45.5406 14.4638C49.3059 14.8346 56.323 14.7775 59.2326 14.7775C60.1168 14.7775 61.6287 14.7775 61.6287 14.7775V28.9544C61.6287 28.9544 60.1168 28.9544 59.2326 28.9544C56.323 28.9544 49.3059 29.0114 45.5406 28.6406C41.0622 28.1842 34.3018 26.7295 32.5333 26.3301C29.1959 25.617 24.6319 24.1622 20.0394 23.2209C15.4469 22.2796 10.2839 21.1956 4.52189 22.7074C0.699562 23.7058 0.385788 26.0734 0.385788 26.0734V11.8965Z" fill="white"/>
<path fill-rule="evenodd" clip-rule="evenodd" d="M61.6001 20.4826C61.6001 20.4826 60.0883 20.4826 59.204 20.4826C56.2945 20.4826 49.2774 20.5397 45.5121 20.1688C41.0337 19.7124 34.2733 18.2577 32.5047 17.8583C29.1673 17.1452 24.6034 15.6904 20.0109 14.7491C15.4184 13.8078 10.2554 12.7239 4.49333 14.2357C0.671001 15.234 0.357227 17.6016 0.357227 17.6016V20.1974C0.357227 20.1974 0.642479 17.8298 4.49333 16.8314C10.2554 15.3196 15.4184 16.4036 20.0109 17.3449C24.6319 18.2862 29.1673 19.741 32.5047 20.4541C34.2448 20.8249 41.0051 22.3082 45.5121 22.7646C49.2774 23.1354 56.2945 23.0784 59.204 23.0784C60.0883 23.0784 61.6001 23.0784 61.6001 23.0784V20.4826" fill="#36318A"/>
<path d="M10.5121 21.9658C13.9065 21.9658 17.0728 22.6218 20.0109 23.2209C24.6319 24.1622 29.1673 25.617 32.5047 26.3301C34.2448 26.7009 41.0051 28.1842 45.5121 28.6406C48.279 28.9258 52.7859 28.9544 56.1518 28.9544C57.3499 28.9544 58.4338 28.9544 59.204 28.9544C60.0883 28.9544 61.6001 28.9544 61.6001 28.9544V36.0285C61.6001 36.0285 60.0883 36.0285 59.204 36.0285C58.4338 36.0285 57.3784 36.0285 56.1518 36.0285C52.7859 36.0285 48.279 36 45.5121 35.7148C41.0337 35.2584 34.2733 33.8036 32.5047 33.4042C29.1673 32.6911 24.6034 31.2363 20.0109 30.295C17.0728 29.696 13.9065 29.0399 10.5121 29.0399C8.60091 29.0399 6.57565 29.2396 4.49333 29.7816C0.671001 30.78 0.357227 33.1475 0.357227 33.1475V26.1019C0.357227 26.1019 0.642479 23.7343 4.49333 22.7359C6.57565 22.194 8.60091 21.9658 10.5121 21.9658ZM10.5121 1C13.9065 1 17.0728 1.65607 20.0109 2.25509C24.6319 3.19641 29.1673 4.65118 32.5047 5.3643C34.2448 5.73513 41.0051 7.21842 45.5121 7.67482C48.279 7.96007 52.7859 7.98859 56.1518 7.98859C57.3499 7.98859 58.4338 7.98859 59.204 7.98859C60.0883 7.98859 61.6001 7.98859 61.6001 7.98859V14.749C61.6001 14.749 60.0883 14.749 59.204 14.749C58.4338 14.749 57.3784 14.749 56.1518 14.749C52.7859 14.749 48.279 14.7205 45.5121 14.4352C41.0337 13.9788 34.2733 12.524 32.5047 12.1247C29.1673 11.4116 24.6034 9.95681 20.0109 9.01548C17.0728 8.41646 13.9065 7.76039 10.5121 7.76039C8.60091 7.76039 6.57565 7.96006 4.49333 8.50204C0.671001 9.50041 0.357227 11.868 0.357227 11.868V5.10758C0.357227 5.10758 0.642479 2.74002 4.49333 1.74165C6.57565 1.19967 8.60091 1 10.5121 1Z" fill="url(#paint1_linear_14056_324219)"/>
<path d="M10.5121 16.118C13.9351 16.118 17.0728 16.7741 20.0109 17.3731C24.6319 18.3145 29.1673 19.7692 32.5047 20.4823C34.2448 20.8532 41.0051 22.3365 45.5121 22.7929C48.279 23.0781 52.7859 23.1066 56.1518 23.1066C57.3499 23.1066 58.4338 23.1066 59.204 23.1066C60.0883 23.1066 61.6001 23.1066 61.6001 23.1066V28.9542C61.6001 28.9542 60.0883 28.9542 59.204 28.9542C58.4338 28.9542 57.3784 28.9542 56.1518 28.9542C52.7859 28.9542 48.279 28.9257 45.5121 28.6404C41.0337 28.1841 34.2733 26.7293 32.5047 26.3299C29.1673 25.6168 24.6034 24.162 20.0109 23.2207C17.0728 22.6217 13.9065 21.9656 10.5121 21.9656C8.60091 21.9656 6.57565 22.1653 4.49333 22.7073C0.671001 23.7056 0.357227 26.0732 0.357227 26.0732V20.2256C0.357227 20.2256 0.642479 17.8581 4.49333 16.8597C6.57565 16.3177 8.60091 16.118 10.5121 16.118ZM10.5121 7.76025C13.9351 7.76025 17.0728 8.41633 20.0109 9.01535C24.6319 9.95667 29.1673 11.4114 32.5047 12.1246C34.2448 12.4954 41.0051 13.9787 45.5121 14.4351C48.279 14.7203 52.7859 14.7488 56.1518 14.7488C57.3499 14.7488 58.4338 14.7488 59.204 14.7488C60.0883 14.7488 61.6001 14.7488 61.6001 14.7488V20.5109C61.6001 20.5109 60.0883 20.5109 59.204 20.5109C58.4338 20.5109 57.3784 20.5109 56.1518 20.5109C52.7859 20.5109 48.279 20.4823 45.5121 20.1971C41.0337 19.7407 34.2733 18.2859 32.5047 17.8866C29.1673 17.1735 24.6034 15.7187 20.0109 14.7774C17.0728 14.1783 13.9065 13.5223 10.5121 13.5223C8.60091 13.5223 6.57565 13.7219 4.49333 14.2639C0.671001 15.2623 0.357227 17.6299 0.357227 17.6299V11.8964C0.357227 11.8964 0.642479 9.52879 4.49333 8.53042C6.57565 7.98845 8.60091 7.76025 10.5121 7.76025Z" fill="url(#paint2_linear_14056_324219)"/>
<path d="M10.5121 13.5225C13.9065 13.5225 17.0728 14.1785 20.0109 14.7776C24.6319 15.7189 29.1673 17.1736 32.5047 17.8868C34.2448 18.2576 41.0051 19.7409 45.5121 20.1973C48.279 20.4825 52.7859 20.5111 56.1518 20.5111C57.3499 20.5111 58.4338 20.5111 59.204 20.5111C60.0883 20.5111 61.6001 20.5111 61.6001 20.5111V23.1068C61.6001 23.1068 60.0883 23.1068 59.204 23.1068C58.4338 23.1068 57.3784 23.1068 56.1518 23.1068C52.7859 23.1068 48.279 23.0783 45.5121 22.793C41.0337 22.3366 34.2733 20.8819 32.5047 20.4825C29.1673 19.7694 24.6034 18.3146 20.0109 17.3733C17.0728 16.7743 13.9065 16.1182 10.5121 16.1182C8.60091 16.1182 6.57565 16.3179 4.49333 16.8599C0.671001 17.8582 0.357227 20.2258 0.357227 20.2258V17.63C0.357227 17.63 0.642479 15.2625 4.49333 14.2641C6.57565 13.7221 8.60091 13.5225 10.5121 13.5225Z" fill="url(#paint3_linear_14056_324219)"/>
</g>
<defs>
<linearGradient id="paint0_linear_14056_324219" x1="-2.31253" y1="32.5092" x2="44.8279" y2="32.5092" gradientUnits="userSpaceOnUse">
<stop stop-color="white"/>
<stop offset="0.42" stop-color="#A7A9AC"/>
<stop offset="0.9597" stop-color="#5E5F61"/>
<stop offset="1" stop-color="#58595B"/>
</linearGradient>
<linearGradient id="paint1_linear_14056_324219" x1="61.8748" y1="18.5075" x2="-3.25182" y2="18.5075" gradientUnits="userSpaceOnUse">
<stop stop-color="#DF002B"/>
<stop offset="0.04" stop-color="#DF002B"/>
<stop offset="0.76" stop-color="#DF002B"/>
<stop offset="0.793" stop-color="#DC002B"/>
<stop offset="0.8163" stop-color="#D3002B"/>
<stop offset="0.8367" stop-color="#C3002B"/>
<stop offset="0.8553" stop-color="#AD002B"/>
<stop offset="0.8597" stop-color="#A7002B"/>
<stop offset="0.9305" stop-color="#93002B"/>
<stop offset="0.9438" stop-color="#AB002B"/>
<stop offset="0.9631" stop-color="#C7002B"/>
<stop offset="0.98" stop-color="#D9002B"/>
<stop offset="0.9924" stop-color="#DF002B"/>
<stop offset="1" stop-color="#DF002B"/>
</linearGradient>
<linearGradient id="paint2_linear_14056_324219" x1="61.8748" y1="18.3576" x2="-3.25182" y2="18.3576" gradientUnits="userSpaceOnUse">
<stop stop-color="white"/>
<stop offset="0.04" stop-color="#EEF0F2"/>
<stop offset="0.76" stop-color="#F2F2F2"/>
<stop offset="0.7803" stop-color="#ECECED"/>
<stop offset="0.8067" stop-color="#DCDDDD"/>
<stop offset="0.8363" stop-color="#C1C3C5"/>
<stop offset="0.8597" stop-color="#A7A9AC"/>
<stop offset="0.9305" stop-color="#939598"/>
<stop offset="0.9924" stop-color="#F2F2F2"/>
<stop offset="1" stop-color="#F2F2F2"/>
</linearGradient>
<linearGradient id="paint3_linear_14056_324219" x1="61.8748" y1="18.3057" x2="-3.25182" y2="18.3057" gradientUnits="userSpaceOnUse">
<stop stop-color="#36318A"/>
<stop offset="0.04" stop-color="#36318A"/>
<stop offset="0.76" stop-color="#36318A"/>
<stop offset="0.8597" stop-color="#36318A"/>
<stop offset="0.9305" stop-color="#36318A"/>
<stop offset="0.9924" stop-color="#36318A"/>
<stop offset="1" stop-color="#36318A"/>
</linearGradient>
<clipPath id="clip0_14056_324219">
<rect width="61" height="36" fill="white" transform="matrix(-1 0 0 1 61 0)"/>
</clipPath>
</defs>
</svg>
